<?xml version="1.0" encoding="UTF-8"?>
<svg xmlns="http://www.w3.org/2000/svg" xmlns:xlink="http://www.w3.org/1999/xlink" width="21px" height="21px" viewBox="0 0 21 21" version="1.1">
<g id="surface1">
<path style=" stroke:none;fill-rule:nonzero;fill:rgb(0%,0%,0%);fill-opacity:1;" d="M 11.550781 2.101562 L 6.648438 2.101562 L 6.648438 7.699219 L 11.550781 7.699219 Z M 10.03125 4.757812 L 10.007812 4.8125 C 9.917969 5.015625 9.835938 5.203125 9.769531 5.398438 C 9.765625 5.414062 9.757812 5.429688 9.75 5.445312 L 9.0625 6.808594 C 9.003906 6.925781 8.882812 7 8.75 7 C 8.617188 7 8.496094 6.925781 8.4375 6.808594 L 7.75 5.449219 C 7.742188 5.433594 7.738281 5.417969 7.730469 5.402344 C 7.679688 5.246094 7.613281 5.097656 7.546875 4.945312 C 7.515625 4.875 7.484375 4.800781 7.457031 4.726562 C 7.386719 4.558594 7.351562 4.382812 7.351562 4.199219 C 7.351562 3.789062 7.53125 3.398438 7.84375 3.132812 C 8.160156 2.863281 8.578125 2.75 8.988281 2.820312 C 9.5625 2.917969 10.03125 3.386719 10.128906 3.964844 C 10.175781 4.234375 10.140625 4.507812 10.03125 4.757812 Z M 10.03125 4.757812 "/>
<path style=" stroke:none;fill-rule:nonzero;fill:rgb(0%,0%,0%);fill-opacity:1;" d="M 8.875 3.511719 C 8.660156 3.476562 8.457031 3.53125 8.296875 3.664062 C 8.140625 3.800781 8.050781 3.992188 8.050781 4.199219 C 8.050781 4.289062 8.066406 4.375 8.101562 4.460938 C 8.128906 4.527344 8.160156 4.597656 8.191406 4.667969 C 8.257812 4.824219 8.328125 4.984375 8.386719 5.15625 L 8.75 5.875 L 9.113281 5.152344 C 9.1875 4.933594 9.277344 4.730469 9.367188 4.53125 L 9.390625 4.476562 C 9.445312 4.351562 9.460938 4.21875 9.441406 4.082031 C 9.390625 3.796875 9.152344 3.558594 8.875 3.511719 Z M 8.875 3.511719 "/>
<path style=" stroke:none;fill-rule:nonzero;fill:rgb(0%,0%,0%);fill-opacity:1;" d="M 12.25 8.398438 L 14.351562 8.398438 L 14.351562 10.5 L 12.25 10.5 Z M 12.25 8.398438 "/>
<path style=" stroke:none;fill-rule:nonzero;fill:rgb(0%,0%,0%);fill-opacity:1;" d="M 12.25 2.101562 L 14.351562 2.101562 L 14.351562 7.699219 L 12.25 7.699219 Z M 12.25 2.101562 "/>
<path style=" stroke:none;fill-rule:nonzero;fill:rgb(0%,0%,0%);fill-opacity:1;" d="M 6.667969 15.398438 L 11.550781 15.398438 L 11.550781 11.199219 L 11.199219 11.199219 C 8.808594 11.199219 6.847656 13.054688 6.667969 15.398438 Z M 6.667969 15.398438 "/>
<path style=" stroke:none;fill-rule:nonzero;fill:rgb(0%,0%,0%);fill-opacity:1;" d="M 12.25 11.199219 L 14.351562 11.199219 L 14.351562 15.398438 L 12.25 15.398438 Z M 12.25 11.199219 "/>
<path style=" stroke:none;fill-rule:nonzero;fill:rgb(0%,0%,0%);fill-opacity:1;" d="M 6.648438 13.140625 C 7.558594 11.566406 9.253906 10.5 11.199219 10.5 L 11.550781 10.5 L 11.550781 8.398438 L 6.648438 8.398438 Z M 6.648438 13.140625 "/>
<path style=" stroke:none;fill-rule:nonzero;fill:rgb(0%,0%,0%);fill-opacity:1;" d="M 16.101562 0 L 4.898438 0 C 4.707031 0 4.550781 0.15625 4.550781 0.351562 L 4.550781 17.148438 C 4.550781 17.34375 4.707031 17.5 4.898438 17.5 L 5.601562 17.5 C 7.21875 17.5 8.554688 18.726562 8.730469 20.300781 L 7.699219 20.300781 C 7.507812 20.300781 7.351562 20.457031 7.351562 20.648438 C 7.351562 20.84375 7.507812 21 7.699219 21 L 13.300781 21 C 13.492188 21 13.648438 20.84375 13.648438 20.648438 C 13.648438 20.457031 13.492188 20.300781 13.300781 20.300781 L 12.269531 20.300781 C 12.445312 18.726562 13.78125 17.5 15.398438 17.5 L 16.101562 17.5 C 16.292969 17.5 16.449219 17.34375 16.449219 17.148438 L 16.449219 0.351562 C 16.449219 0.15625 16.292969 0 16.101562 0 Z M 11.566406 20.300781 L 9.433594 20.300781 C 9.328125 19.144531 8.707031 18.132812 7.808594 17.5 L 13.195312 17.5 C 12.292969 18.132812 11.671875 19.144531 11.566406 20.300781 Z M 15.050781 15.75 C 15.050781 15.945312 14.894531 16.101562 14.699219 16.101562 L 6.300781 16.101562 C 6.105469 16.101562 5.949219 15.945312 5.949219 15.75 L 5.949219 1.75 C 5.949219 1.554688 6.105469 1.398438 6.300781 1.398438 L 14.699219 1.398438 C 14.894531 1.398438 15.050781 1.554688 15.050781 1.75 Z M 15.050781 15.75 "/>
</g>
</svg>
