<?xml version="1.0" encoding="UTF-8"?>
<svg xmlns="http://www.w3.org/2000/svg" xmlns:xlink="http://www.w3.org/1999/xlink" width="21px" height="21px" viewBox="0 0 21 21" version="1.1">
<g id="surface1">
<path style="fill-rule:nonzero;fill:rgb(98.823529%,98.823529%,98.823529%);fill-opacity:1;stroke-width:1;stroke-linecap:butt;stroke-linejoin:miter;stroke:rgb(98.823529%,98.823529%,98.823529%);stroke-opacity:1;stroke-miterlimit:4;" d="M 281.619048 52.238095 L 162.095238 52.238095 L 162.095238 188.714286 L 281.619048 188.714286 Z M 244.571429 117 L 244 118.333333 C 241.809524 123.285714 239.809524 127.857143 238.190476 132.619048 C 238.095238 133 237.904762 133.380952 237.714286 133.761905 L 220.952381 167 C 219.52381 169.857143 216.571429 171.666667 213.333333 171.666667 C 210.095238 171.666667 207.142857 169.857143 205.714286 167 L 188.952381 133.857143 C 188.761905 133.47619 188.666667 133.095238 188.47619 132.714286 C 187.238095 128.904762 185.619048 125.285714 184 121.571429 C 183.238095 119.857143 182.47619 118.047619 181.809524 116.238095 C 180.095238 112.142857 179.238095 107.857143 179.238095 103.380952 C 179.238095 93.380952 183.619048 83.857143 191.238095 77.380952 C 198.952381 70.809524 209.142857 68.047619 219.142857 69.761905 C 233.142857 72.142857 244.571429 83.571429 246.952381 97.666667 C 248.095238 104.238095 247.238095 110.904762 244.571429 117 Z M 244.571429 117 " transform="matrix(0.0410156,0,0,0.0410156,0,-0.0410156)"/>
<path style="fill-rule:nonzero;fill:rgb(98.823529%,98.823529%,98.823529%);fill-opacity:1;stroke-width:1;stroke-linecap:butt;stroke-linejoin:miter;stroke:rgb(98.823529%,98.823529%,98.823529%);stroke-opacity:1;stroke-miterlimit:4;" d="M 216.380952 86.619048 C 211.142857 85.761905 206.190476 87.095238 202.285714 90.333333 C 198.47619 93.666667 196.285714 98.333333 196.285714 103.380952 C 196.285714 105.571429 196.666667 107.666667 197.52381 109.761905 C 198.190476 111.380952 198.952381 113.095238 199.714286 114.809524 C 201.333333 118.619048 203.047619 122.52381 204.47619 126.714286 L 213.333333 144.238095 L 222.190476 126.619048 C 224 121.285714 226.190476 116.333333 228.380952 111.47619 L 228.952381 110.142857 C 230.285714 107.095238 230.666667 103.857143 230.190476 100.52381 C 228.952381 93.571429 223.142857 87.761905 216.380952 86.619048 Z M 216.380952 86.619048 " transform="matrix(0.0410156,0,0,0.0410156,0,-0.0410156)"/>
<path style="fill-rule:nonzero;fill:rgb(98.823529%,98.823529%,98.823529%);fill-opacity:1;stroke-width:1;stroke-linecap:butt;stroke-linejoin:miter;stroke:rgb(98.823529%,98.823529%,98.823529%);stroke-opacity:1;stroke-miterlimit:4;" d="M 298.666667 205.761905 L 349.904762 205.761905 L 349.904762 257 L 298.666667 257 Z M 298.666667 205.761905 " transform="matrix(0.0410156,0,0,0.0410156,0,-0.0410156)"/>
<path style="fill-rule:nonzero;fill:rgb(98.823529%,98.823529%,98.823529%);fill-opacity:1;stroke-width:1;stroke-linecap:butt;stroke-linejoin:miter;stroke:rgb(98.823529%,98.823529%,98.823529%);stroke-opacity:1;stroke-miterlimit:4;" d="M 298.666667 52.238095 L 349.904762 52.238095 L 349.904762 188.714286 L 298.666667 188.714286 Z M 298.666667 52.238095 " transform="matrix(0.0410156,0,0,0.0410156,0,-0.0410156)"/>
<path style="fill-rule:nonzero;fill:rgb(98.823529%,98.823529%,98.823529%);fill-opacity:1;stroke-width:1;stroke-linecap:butt;stroke-linejoin:miter;stroke:rgb(98.823529%,98.823529%,98.823529%);stroke-opacity:1;stroke-miterlimit:4;" d="M 162.571429 376.428571 L 281.619048 376.428571 L 281.619048 274.047619 L 273.047619 274.047619 C 214.761905 274.047619 166.952381 319.285714 162.571429 376.428571 Z M 162.571429 376.428571 " transform="matrix(0.0410156,0,0,0.0410156,0,-0.0410156)"/>
<path style="fill-rule:nonzero;fill:rgb(98.823529%,98.823529%,98.823529%);fill-opacity:1;stroke-width:1;stroke-linecap:butt;stroke-linejoin:miter;stroke:rgb(98.823529%,98.823529%,98.823529%);stroke-opacity:1;stroke-miterlimit:4;" d="M 298.666667 274.047619 L 349.904762 274.047619 L 349.904762 376.428571 L 298.666667 376.428571 Z M 298.666667 274.047619 " transform="matrix(0.0410156,0,0,0.0410156,0,-0.0410156)"/>
<path style="fill-rule:nonzero;fill:rgb(98.823529%,98.823529%,98.823529%);fill-opacity:1;stroke-width:1;stroke-linecap:butt;stroke-linejoin:miter;stroke:rgb(98.823529%,98.823529%,98.823529%);stroke-opacity:1;stroke-miterlimit:4;" d="M 162.095238 321.380952 C 184.285714 283 225.619048 257 273.047619 257 L 281.619048 257 L 281.619048 205.761905 L 162.095238 205.761905 Z M 162.095238 321.380952 " transform="matrix(0.0410156,0,0,0.0410156,0,-0.0410156)"/>
<path style="fill-rule:nonzero;fill:rgb(98.823529%,98.823529%,98.823529%);fill-opacity:1;stroke-width:1;stroke-linecap:butt;stroke-linejoin:miter;stroke:rgb(98.823529%,98.823529%,98.823529%);stroke-opacity:1;stroke-miterlimit:4;" d="M 392.571429 1 L 119.428571 1 C 114.761905 1 110.952381 4.809524 110.952381 9.571429 L 110.952381 419.095238 C 110.952381 423.857143 114.761905 427.666667 119.428571 427.666667 L 136.571429 427.666667 C 176 427.666667 208.571429 457.571429 212.857143 495.952381 L 187.714286 495.952381 C 183.047619 495.952381 179.238095 499.761905 179.238095 504.428571 C 179.238095 509.190476 183.047619 513 187.714286 513 L 324.285714 513 C 328.952381 513 332.761905 509.190476 332.761905 504.428571 C 332.761905 499.761905 328.952381 495.952381 324.285714 495.952381 L 299.142857 495.952381 C 303.428571 457.571429 336 427.666667 375.428571 427.666667 L 392.571429 427.666667 C 397.238095 427.666667 401.047619 423.857143 401.047619 419.095238 L 401.047619 9.571429 C 401.047619 4.809524 397.238095 1 392.571429 1 Z M 282 495.952381 L 230 495.952381 C 227.428571 467.761905 212.285714 443.095238 190.380952 427.666667 L 321.714286 427.666667 C 299.714286 443.095238 284.571429 467.761905 282 495.952381 Z M 366.952381 385 C 366.952381 389.761905 363.142857 393.571429 358.380952 393.571429 L 153.619048 393.571429 C 148.857143 393.571429 145.047619 389.761905 145.047619 385 L 145.047619 43.666667 C 145.047619 38.904762 148.857143 35.095238 153.619048 35.095238 L 358.380952 35.095238 C 363.142857 35.095238 366.952381 38.904762 366.952381 43.666667 Z M 366.952381 385 " transform="matrix(0.0410156,0,0,0.0410156,0,-0.0410156)"/>
</g>
</svg>
